<?xml version="1.0" encoding="utf-8"?>
<!-- Generator: Adobe Illustrator 25.0.0, SVG Export Plug-In . SVG Version: 6.00 Build 0)  -->
<svg version="1.1" id="Layer_1" xmlns="http://www.w3.org/2000/svg" xmlns:xlink="http://www.w3.org/1999/xlink" x="0px" y="0px"
	 viewBox="0 0 648 648" style="enable-background:new 0 0 648 648;" xml:space="preserve">
<path d="M530.9,211.9c-20-14.3-45.8-20-68.6-22.9c-14.3-2.9-28.6-2.9-40-2.9c-2.9,0-2.9-2.9-5.7-2.9c-2.9,0-5.7,0-8.6,2.9
	c-8.6,0-14.3,2.9-22.9,5.7c0-17.2-2.9-31.5-5.7-48.6c-2.9-14.3-22.9-11.4-28.6,0c-20,51.5-20,103-22.9,151.6
	c-8.6-31.5-20-62.9-28.6-94.4c-2.9-14.3-22.9-14.3-28.6,0c-5.7,20-8.6,42.9-11.4,65.8c-11.4,5.7-22.9,8.6-34.3,14.3
	c-5.7-25.7-8.6-51.5-8.6-77.2c0-14.3-20-20-25.7-8.6c-17.2,40-34.3,80.1-51.5,120.1c-11.4,5.7-25.7,14.3-37.2,25.7
	c-14.3,11.4,5.7,31.5,20,20c-5.7,17.2-11.4,31.5-17.2,48.6c-5.7,17.2,22.9,25.7,28.6,8.6c8.6-28.6,20-57.2,28.6-85.8
	c14.3-5.7,28.6-11.4,42.9-17.2c5.7,22.9,14.3,45.8,20,68.6c2.9,8.6,11.4,11.4,17.2,11.4v2.9c-2.9,0-2.9,0-5.7,0
	c-17.2,5.7-11.4,31.5,8.6,28.6c42.9-11.4,88.7-20,131.6-31.5c2.9,20,5.7,42.9,8.6,62.9c0,17.2,28.6,17.2,28.6,0
	c-2.9-22.9-5.7-45.8-8.6-71.5c42.9-14.3,88.7-31.5,123-60.1C559.5,294.9,571,240.5,530.9,211.9z M179.1,297.7
	c5.7-11.4,8.6-22.9,14.3-34.3c0,8.6,2.9,17.2,5.7,28.6C190.6,292,184.9,294.9,179.1,297.7z M230.6,306.3c8.6-2.9,17.2-5.7,22.9-8.6
	v2.9c-2.9,20-5.7,40-8.6,57.2C242.1,340.6,236.3,323.5,230.6,306.3z M285,286.3c2.9-2.9,5.7-2.9,8.6-5.7
	c8.6,28.6,17.2,60.1,25.7,88.7c0,2.9,2.9,5.7,5.7,5.7c-17.2,2.9-34.3,8.6-51.5,11.4C276.4,355,279.2,320.6,285,286.3z M345,372.1
	C345,372.1,347.9,369.3,345,372.1c8.6-37.2,11.4-71.5,11.4-105.8c0,11.4,2.9,25.7,2.9,37.2c2.9,20,5.7,40,8.6,62.9
	C362.2,366.4,353.6,369.3,345,372.1z M470.9,329.2c-22.9,11.4-45.8,20-71.5,28.6c-2.9-17.2-5.7-37.2-8.6-57.2
	c-5.7-25.7-5.7-54.3-5.7-80.1c2.9,2.9,8.6,2.9,11.4,0h2.9c2.9,37.2,2.9,74.4-2.9,111.5c0,8.6,8.6,14.3,14.3,14.3
	c8.6,0,14.3-5.7,14.3-14.3c2.9-37.2,5.7-77.2,2.9-114.4c14.3,0,25.7,2.9,37.2,5.7c17.2,2.9,40,8.6,54.3,20
	c14.3,14.3,8.6,40-2.9,54.3C505.2,309.2,488,320.6,470.9,329.2z"/>
<g>
</g>
<g>
</g>
<g>
</g>
<g>
</g>
<g>
</g>
</svg>
